<svg width="61" height="37" viewBox="0 0 61 37" fill="none" xmlns="http://www.w3.org/2000/svg">
<path d="M9.526 21.148C12.11 21.528 16.822 21.984 19.558 24.036C20.888 23.618 22.218 23.276 23.548 22.972C27.082 22.174 28.336 22.098 28.678 22.364C28.868 22.554 28.83 22.592 28.564 22.668L23.89 23.96L20.546 24.948C21.268 25.784 21.686 26.81 21.686 28.102C21.686 32.624 15.758 35.93 10.286 36.842C9.754 36.918 9.184 36.994 8.576 36.994C6.448 36.994 4.244 36.31 4.244 34.03C4.32 32.852 5.118 31.636 6.41 30.496C9.146 28.026 13.516 25.974 18.152 24.454C15.91 23.048 12.338 22.554 9.678 22.174C5.992 21.68 1.546 20.616 0.558 17.424C0.292 16.626 0.178 15.828 0.178 15.068C0.178 11.04 3.37 7.43 6.904 5.036C9.792 3.136 13.326 1.768 16.518 1.768C18.418 1.768 20.204 2.262 21.61 3.402C22.56 4.352 22.94 5.378 22.94 6.518C22.94 7.962 22.294 9.596 21.42 11.344C20.774 12.598 19.786 12.94 20.166 11.952C21.04 10.166 21.686 8.266 21.686 6.67C21.686 5.606 21.42 4.694 20.736 4.048C19.862 3.364 18.722 3.06 17.43 3.06C14.2 3.06 10.172 4.884 8.006 6.366C4.13 9.026 1.47 12.18 1.47 15.562C1.47 16.132 1.546 16.664 1.698 17.234C2.344 19.666 6.182 20.692 9.526 21.148ZM20.28 27.912C20.28 26.886 19.9 26.05 19.292 25.366C13.516 27.304 9.792 29.318 7.512 31.332C5.992 32.662 5.346 33.726 5.346 34.524C5.346 35.512 6.41 36.044 8.006 36.044C8.614 36.044 9.298 35.968 10.058 35.816C14.314 34.98 20.052 32.168 20.28 27.912ZM43.4342 27.988C41.9142 21.034 40.8122 14.194 40.2422 7.62C35.9102 22.326 25.0422 34.714 16.5682 30.8C16.2642 30.534 16.2262 30.192 16.6062 30.306C27.7402 33.764 37.2022 14.384 39.3302 6.708C39.4822 6.138 39.5202 5.34 39.5962 4.884C39.5582 4.846 39.5962 4.808 39.5962 4.77C39.7102 4.238 40.9642 4.998 41.1162 5.72C41.9902 11.002 42.4082 18.146 44.0042 24.682C46.6262 18.184 53.7702 2.604 55.2902 1.312C55.8982 0.513999 56.9622 1.578 56.9242 2.338C56.3542 8.228 55.9742 12.788 55.9742 17.538C55.9742 18.488 55.9742 19.4 56.0122 20.35C56.2402 27.836 57.4182 33.308 60.2682 34.22C60.4962 34.296 60.5722 34.714 60.1162 34.714C55.8222 34.714 54.9102 25.898 54.6442 20.578C54.6062 19.59 54.5682 18.564 54.5682 17.538C54.5682 12.864 55.0242 7.734 55.4802 3.212C53.5802 6.176 46.4362 21.566 44.6502 26.506C44.6882 27.456 43.8142 28.33 43.4342 27.988Z" fill="black"/>
</svg>
